<mxfile host="app.diagrams.net" modified="2024-07-18T23:54:31.673Z" agent="Mozilla/5.0 (Windows NT 10.0; Win64; x64) AppleWebKit/537.36 (KHTML, like Gecko) Chrome/122.0.0.0 Safari/537.36" etag="NggQIbMgQwEiNOyShrZe" version="24.7.1" type="device">
  <diagram name="Page-1" id="FbiJPevhZY0BB7bWFWJa">
    <mxGraphModel dx="1050" dy="522" grid="1" gridSize="10" guides="1" tooltips="1" connect="1" arrows="1" fold="1" page="1" pageScale="1" pageWidth="850" pageHeight="1100" math="0" shadow="0">
      <root>
        <mxCell id="0" />
        <mxCell id="1" parent="0" />
        <mxCell id="oJPc7QfXgOQLR55dHHly-1" value="&lt;font style=&quot;font-size: 50px;&quot;&gt;Plant&lt;/font&gt;" style="text;html=1;align=center;verticalAlign=middle;resizable=0;points=[];autosize=1;strokeColor=none;fillColor=none;" vertex="1" parent="1">
          <mxGeometry x="310" y="98" width="140" height="70" as="geometry" />
        </mxCell>
        <mxCell id="oJPc7QfXgOQLR55dHHly-2" value="" style="endArrow=none;html=1;rounded=0;" edge="1" parent="1">
          <mxGeometry width="50" height="50" relative="1" as="geometry">
            <mxPoint x="220" y="270" as="sourcePoint" />
            <mxPoint x="350" y="160" as="targetPoint" />
          </mxGeometry>
        </mxCell>
        <mxCell id="oJPc7QfXgOQLR55dHHly-3" value="" style="endArrow=none;html=1;rounded=0;" edge="1" parent="1">
          <mxGeometry width="50" height="50" relative="1" as="geometry">
            <mxPoint x="560" y="270" as="sourcePoint" />
            <mxPoint x="425" y="160" as="targetPoint" />
          </mxGeometry>
        </mxCell>
        <mxCell id="oJPc7QfXgOQLR55dHHly-4" value="&lt;font style=&quot;font-size: 50px;&quot;&gt;Flower&lt;/font&gt;" style="text;html=1;align=center;verticalAlign=middle;resizable=0;points=[];autosize=1;strokeColor=none;fillColor=none;" vertex="1" parent="1">
          <mxGeometry x="115" y="268" width="170" height="70" as="geometry" />
        </mxCell>
        <mxCell id="oJPc7QfXgOQLR55dHHly-5" value="&lt;font style=&quot;font-size: 50px;&quot;&gt;Tree&lt;/font&gt;" style="text;html=1;align=center;verticalAlign=middle;resizable=0;points=[];autosize=1;strokeColor=none;fillColor=none;" vertex="1" parent="1">
          <mxGeometry x="500" y="268" width="120" height="70" as="geometry" />
        </mxCell>
        <mxCell id="oJPc7QfXgOQLR55dHHly-6" value="" style="endArrow=none;html=1;rounded=0;" edge="1" parent="1">
          <mxGeometry width="50" height="50" relative="1" as="geometry">
            <mxPoint x="90" y="410" as="sourcePoint" />
            <mxPoint x="165" y="338" as="targetPoint" />
          </mxGeometry>
        </mxCell>
        <mxCell id="oJPc7QfXgOQLR55dHHly-7" value="&lt;font style=&quot;font-size: 50px;&quot;&gt;Rose&lt;/font&gt;" style="text;html=1;align=center;verticalAlign=middle;resizable=0;points=[];autosize=1;strokeColor=none;fillColor=none;" vertex="1" parent="1">
          <mxGeometry x="10" y="400" width="140" height="70" as="geometry" />
        </mxCell>
        <mxCell id="oJPc7QfXgOQLR55dHHly-8" value="" style="endArrow=none;html=1;rounded=0;" edge="1" parent="1">
          <mxGeometry width="50" height="50" relative="1" as="geometry">
            <mxPoint x="310" y="410" as="sourcePoint" />
            <mxPoint x="240" y="338" as="targetPoint" />
          </mxGeometry>
        </mxCell>
        <mxCell id="oJPc7QfXgOQLR55dHHly-9" value="&lt;span style=&quot;font-size: 50px;&quot;&gt;Daisy&lt;/span&gt;" style="text;html=1;align=center;verticalAlign=middle;resizable=0;points=[];autosize=1;strokeColor=none;fillColor=none;" vertex="1" parent="1">
          <mxGeometry x="240" y="400" width="150" height="70" as="geometry" />
        </mxCell>
        <mxCell id="oJPc7QfXgOQLR55dHHly-10" value="" style="endArrow=none;html=1;rounded=0;" edge="1" parent="1" source="oJPc7QfXgOQLR55dHHly-11">
          <mxGeometry width="50" height="50" relative="1" as="geometry">
            <mxPoint x="490" y="420" as="sourcePoint" />
            <mxPoint x="550" y="338" as="targetPoint" />
            <Array as="points" />
          </mxGeometry>
        </mxCell>
        <mxCell id="oJPc7QfXgOQLR55dHHly-11" value="&lt;font style=&quot;font-size: 50px;&quot;&gt;Oak&lt;/font&gt;" style="text;html=1;align=center;verticalAlign=middle;resizable=0;points=[];autosize=1;strokeColor=none;fillColor=none;" vertex="1" parent="1">
          <mxGeometry x="425" y="400" width="120" height="70" as="geometry" />
        </mxCell>
        <mxCell id="oJPc7QfXgOQLR55dHHly-12" value="" style="endArrow=none;html=1;rounded=0;" edge="1" parent="1" source="oJPc7QfXgOQLR55dHHly-13">
          <mxGeometry width="50" height="50" relative="1" as="geometry">
            <mxPoint x="670" y="420" as="sourcePoint" />
            <mxPoint x="595" y="338" as="targetPoint" />
          </mxGeometry>
        </mxCell>
        <mxCell id="oJPc7QfXgOQLR55dHHly-13" value="&lt;font style=&quot;font-size: 50px;&quot;&gt;Birch&lt;/font&gt;" style="text;html=1;align=center;verticalAlign=middle;resizable=0;points=[];autosize=1;strokeColor=none;fillColor=none;" vertex="1" parent="1">
          <mxGeometry x="600" y="400" width="140" height="70" as="geometry" />
        </mxCell>
      </root>
    </mxGraphModel>
  </diagram>
</mxfile>
